REM DIRINDEX 1\2\5,1\2\6,1\2\7,1\2\8,1\3\9,1\3\10,1\3\11,1\4\12,1\4\13,1\4\14,1\4\15,1\4\16
REM DIRNAME folder01,folder02,folder03,folder04,folder05,folder06,folder07,folder08,folder09,folder10,folder11,folder12,folder13,folder14,folder15,folder16
TITLE ""
FILE "1200_sec02_0422_0429.mp3" MP3
  TRACK 01 AUDIO
    TITLE "0:"
    INDEX 01 00:00:00
  TRACK 02 AUDIO
    TITLE "12:cjc034_05329"
    INDEX 01 00:00:21
  TRACK 03 AUDIO
    TITLE "0:"
    INDEX 01 00:01:34
  TRACK 04 AUDIO
    TITLE "13:cjc034_05330"
    INDEX 01 00:01:64
  TRACK 05 AUDIO
    TITLE "0:"
    INDEX 01 00:05:69
  TRACK 06 AUDIO
    TITLE "14:cjc034_05331"
    INDEX 01 00:06:28
  TRACK 07 AUDIO
    TITLE "0:"
    INDEX 01 00:07:39
  TRACK 08 AUDIO
    TITLE "15:cjc034_05332"
    INDEX 01 00:07:72
  TRACK 09 AUDIO
    TITLE "0:"
    INDEX 01 00:12:48
  TRACK 10 AUDIO
    TITLE "12:cjc034_05333"
    INDEX 01 00:14:06
  TRACK 11 AUDIO
    TITLE "0:"
    INDEX 01 00:15:11
  TRACK 12 AUDIO
    TITLE "13:cjc034_05334"
    INDEX 01 00:15:44
  TRACK 13 AUDIO
    TITLE "0:"
    INDEX 01 00:16:44
  TRACK 14 AUDIO
    TITLE "14:cjc034_05335"
    INDEX 01 00:17:04
  TRACK 15 AUDIO
    TITLE "0:"
    INDEX 01 00:18:07
  TRACK 16 AUDIO
    TITLE "15:cjc034_05336"
    INDEX 01 00:18:41
  TRACK 17 AUDIO
    TITLE "0:"
    INDEX 01 00:22:23
  TRACK 18 AUDIO
    TITLE "12:cjc034_05337"
    INDEX 01 00:23:55
  TRACK 19 AUDIO
    TITLE "0:"
    INDEX 01 00:24:51
  TRACK 20 AUDIO
    TITLE "13:cjc034_05338"
    INDEX 01 00:25:11
  TRACK 21 AUDIO
    TITLE "0:"
    INDEX 01 00:29:42
  TRACK 22 AUDIO
    TITLE "14:cjc034_05339"
    INDEX 01 00:29:72
  TRACK 23 AUDIO
    TITLE "0:"
    INDEX 01 00:30:69
  TRACK 24 AUDIO
    TITLE "15:cjc034_05340"
    INDEX 01 00:31:27
  TRACK 25 AUDIO
    TITLE "0:"
    INDEX 01 00:34:38
  TRACK 26 AUDIO
    TITLE "12:cjc034_05341"
    INDEX 01 00:35:72
  TRACK 27 AUDIO
    TITLE "0:"
    INDEX 01 00:36:70
  TRACK 28 AUDIO
    TITLE "13:cjc034_05342"
    INDEX 01 00:37:28
  TRACK 29 AUDIO
    TITLE "0:"
    INDEX 01 00:39:58
  TRACK 30 AUDIO
    TITLE "14:cjc034_05343"
    INDEX 01 00:40:15
  TRACK 31 AUDIO
    TITLE "0:"
    INDEX 01 00:41:12
  TRACK 32 AUDIO
    TITLE "15:cjc034_05344"
    INDEX 01 00:41:45
  TRACK 33 AUDIO
    TITLE "0:"
    INDEX 01 00:46:15
  TRACK 34 AUDIO
    TITLE "12:cjc034_05345"
    INDEX 01 00:47:46
  TRACK 35 AUDIO
    TITLE "0:"
    INDEX 01 00:48:67
  TRACK 36 AUDIO
    TITLE "13:cjc034_05346"
    INDEX 01 00:49:25
  TRACK 37 AUDIO
    TITLE "0:"
    INDEX 01 00:51:42
  TRACK 38 AUDIO
    TITLE "14:cjc034_05347"
    INDEX 01 00:52:00
  TRACK 39 AUDIO
    TITLE "0:"
    INDEX 01 00:53:19
  TRACK 40 AUDIO
    TITLE "15:cjc034_05348"
    INDEX 01 00:53:51
  TRACK 41 AUDIO
    TITLE "0:"
    INDEX 01 00:57:27
  TRACK 42 AUDIO
    TITLE "12:cjc034_05349"
    INDEX 01 00:58:60
  TRACK 43 AUDIO
    TITLE "0:"
    INDEX 01 00:59:65
  TRACK 44 AUDIO
    TITLE "13:cjc034_05350"
    INDEX 01 01:00:23
  TRACK 45 AUDIO
    TITLE "0:"
    INDEX 01 01:04:66
  TRACK 46 AUDIO
    TITLE "14:cjc034_05351"
    INDEX 01 01:05:22
  TRACK 47 AUDIO
    TITLE "0:"
    INDEX 01 01:06:30
  TRACK 48 AUDIO
    TITLE "15:cjc034_05352"
    INDEX 01 01:06:63
  TRACK 49 AUDIO
    TITLE "0:"
    INDEX 01 01:11:17
  TRACK 50 AUDIO
    TITLE "12:cjc034_05353"
    INDEX 01 01:12:50
  TRACK 51 AUDIO
    TITLE "0:"
    INDEX 01 01:13:44
  TRACK 52 AUDIO
    TITLE "13:cjc034_05354"
    INDEX 01 01:14:00
  TRACK 53 AUDIO
    TITLE "0:"
    INDEX 01 01:17:08
  TRACK 54 AUDIO
    TITLE "14:cjc034_05355"
    INDEX 01 01:17:41
  TRACK 55 AUDIO
    TITLE "0:"
    INDEX 01 01:18:33
  TRACK 56 AUDIO
    TITLE "15:cjc034_05356"
    INDEX 01 01:18:64
  TRACK 57 AUDIO
    TITLE "0:"
    INDEX 01 01:24:12
  TRACK 58 AUDIO
    TITLE "12:cjc034_05357"
    INDEX 01 01:25:47
  TRACK 59 AUDIO
    TITLE "0:"
    INDEX 01 01:26:72
  TRACK 60 AUDIO
    TITLE "13:cjc034_05358"
    INDEX 01 01:27:32
  TRACK 61 AUDIO
    TITLE "0:"
    INDEX 01 01:29:45
  TRACK 62 AUDIO
    TITLE "14:cjc034_05359"
    INDEX 01 01:30:01
  TRACK 63 AUDIO
    TITLE "0:"
    INDEX 01 01:31:28
  TRACK 64 AUDIO
    TITLE "15:cjc034_05360"
    INDEX 01 01:31:61
  TRACK 65 AUDIO
    TITLE "0:"
    INDEX 01 01:35:65
